<svg width="19" height="14" viewBox="0 0 19 14" fill="none" xmlns="http://www.w3.org/2000/svg">
<g id="icon/undo" clip-path="url(#clip0_8578_34594)">
<path id="Vector" d="M3.01887 13.7151C3.02181 13.875 3.15917 14 3.31901 14H13.4627C16.4614 14 18.9014 11.5603 18.9014 8.56134C18.9014 7.10884 18.3356 5.74308 17.3083 4.71575C16.2807 3.68843 14.9147 3.12268 13.4627 3.12268H1.60358L4.14339 0.761997C4.32144 0.596532 4.33161 0.317811 4.16561 0.14003C4.00015 -0.0374832 3.72196 -0.0476574 3.54418 0.117808L6.86646e-05 3.41345L3.54418 6.70856C3.72196 6.87376 4.00015 6.86385 4.16561 6.68634C4.33134 6.50856 4.32144 6.22984 4.14312 6.06411L1.60278 3.70342H13.4627C14.7597 3.70342 15.9798 4.20865 16.8976 5.1262C17.8092 6.0384 18.3139 7.2486 18.3204 8.53671C18.3335 11.2219 16.1051 13.419 13.4196 13.419H3.3091C3.14658 13.419 3.01566 13.5523 3.0186 13.7151H3.01887Z" fill="white"/>
</g>
<defs>
<clipPath id="clip0_8578_34594">
<rect width="18.9013" height="14" fill="white" transform="matrix(-1 0 0 1 18.9014 0)"/>
</clipPath>
</defs>
</svg>
