<svg width="19" height="14" viewBox="0 0 19 14" fill="none" xmlns="http://www.w3.org/2000/svg">
<g id="icon/redo" clip-path="url(#clip0_8578_34592)">
<path id="Vector" d="M15.8825 13.7151C15.8796 13.875 15.7422 14 15.5824 14H5.43866C2.43994 14 0 11.5603 0 8.56134C0 7.10884 0.56574 5.74308 1.59307 4.71575C2.62067 3.68843 3.98669 3.12268 5.43866 3.12268H17.2978L14.758 0.761997C14.5799 0.596532 14.5698 0.317811 14.7358 0.14003C14.9012 -0.0374832 15.1794 -0.0476574 15.3572 0.117808L18.9013 3.41345L15.3572 6.70856C15.1794 6.87376 14.9012 6.86385 14.7358 6.68634C14.57 6.50856 14.5799 6.22984 14.7582 6.06411L17.2986 3.70342H5.43866C4.14171 3.70342 2.92161 4.20865 2.00379 5.1262C1.09212 6.0384 0.587428 7.2486 0.581002 8.53671C0.567882 11.2219 2.79631 13.419 5.48176 13.419H15.5923C15.7548 13.419 15.8857 13.5523 15.8828 13.7151H15.8825Z" fill="white"/>
</g>
<defs>
<clipPath id="clip0_8578_34592">
<rect width="18.9013" height="14" fill="white"/>
</clipPath>
</defs>
</svg>
