<svg width="34" height="34" viewBox="0 0 34 34" fill="none" xmlns="http://www.w3.org/2000/svg">
<g id="icon/post">
<circle id="Ellipse 167" cx="17" cy="17" r="17" fill="#1B1B1B"/>
<path id="Subtract" fill-rule="evenodd" clip-rule="evenodd" d="M12.5913 14.4917H22.5421C22.6636 14.4917 22.78 14.5415 22.8659 14.6302C22.9518 14.7188 23 14.839 23 14.9644V17H22.0843V15.4371H9.56936V21.8971C9.56936 21.9389 9.58544 21.9789 9.61406 22.0085C9.64269 22.038 9.68151 22.0546 9.72198 22.0546H17V23L9.72198 23C9.43864 23 9.1669 22.8838 8.96655 22.677C8.7662 22.4701 8.65364 22.1896 8.65364 21.8971V15.0274L8.03552 12.6482C7.96326 12.3662 8.00218 12.0661 8.14377 11.8136C8.28537 11.5611 8.51809 11.3768 8.791 11.3011L20.5886 8.03958C20.7236 8.0006 20.8649 7.99027 21.004 8.00922C21.143 8.02818 21.2769 8.07603 21.3975 8.14988C21.6411 8.29778 21.8191 8.53807 21.8935 8.81951L22.5269 11.2538C22.5573 11.3739 22.5408 11.5016 22.4808 11.6092C22.4208 11.7168 22.3222 11.7957 22.2064 11.8289L19.8407 12.4828L14.5372 13.956L12.5913 14.4917ZM18.5358 11.8683L15.926 10.3085L11.8663 11.4271L14.4838 12.987L18.5358 11.8683ZM20.8633 8.95344H20.8252L17.1699 9.96183L19.7873 11.5296L21.5272 11.049L21.0083 9.07161C21.0012 9.03758 20.9829 9.00717 20.9564 8.9856C20.9299 8.96403 20.897 8.95266 20.8633 8.95344ZM10.6148 11.7738L9.02756 12.215C8.98949 12.226 8.95708 12.2519 8.93715 12.2872C8.91722 12.3225 8.91133 12.3644 8.92072 12.404L9.432 14.3893L13.2323 13.3336L10.6148 11.7738Z" fill="#8EE934"/>
<path id="Vector" d="M25.5 22.3125L24.775 22.9687L23 21.3047L23 26.5L22 26.5L22 21.3047L20.225 22.9687L19.5 22.3125L22.5 19.5L25.5 22.3125Z" fill="#8EE934"/>
</g>
</svg>
